<mxfile host="app.diagrams.net" modified="2024-02-22T11:00:22.905Z" agent="Mozilla/5.0 (Windows NT 6.1; Win64; x64) AppleWebKit/537.36 (KHTML, like Gecko) Chrome/109.0.0.0 Safari/537.36" version="23.1.5" etag="sPEnF-jNL7Lcw3Uwq0DG" type="github">
  <diagram name="Trang-1" id="LK7Xnrohnv0dmk2MyEOQ">
    <mxGraphModel>
      <root>
        <mxCell id="0" />
        <mxCell id="1" parent="0" />
      </root>
    </mxGraphModel>
  </diagram>
</mxfile>
